<?xml version="1.0" standalone="no"?>
<!DOCTYPE svg PUBLIC "-//W3C//DTD SVG 20010904//EN"
 "http://www.w3.org/TR/2001/REC-SVG-20010904/DTD/svg10.dtd">
<svg version="1.0" xmlns="http://www.w3.org/2000/svg"
 width="505.000000pt" height="505.000000pt" viewBox="0 0 505.000000 505.000000"
 preserveAspectRatio="xMidYMid meet">
<metadata>
Created by potrace 1.14, written by Peter Selinger 2001-2017
</metadata>
<g transform="translate(0.000000,505.000000) scale(0.100000,-0.100000)"
fill="#000000" stroke="none">
<path d="M154 4721 c-2 -2 489 -496 1092 -1098 l1095 -1094 -560 -561 c-309
-308 -561 -565 -561 -571 0 -5 -2 -8 -5 -5 -3 3 -243 -232 -533 -521 -290
-289 -525 -528 -521 -531 4 -3 580 -5 1281 -4 l1273 0 535 536 c294 295 608
610 697 700 90 90 187 187 217 216 29 28 51 52 48 52 -2 0 8 10 24 22 16 13
30 25 32 29 2 4 194 197 265 265 7 7 43 44 81 83 38 39 73 71 79 71 6 0 8 2 5
5 -3 3 41 51 97 107 57 55 102 106 101 112 -2 13 -337 346 -348 346 -3 0 -10
9 -13 20 -3 11 -10 20 -15 20 -4 0 -325 317 -713 705 -388 388 -704 705 -703
705 6 0 -295 295 -304 298 -5 2 -10 8 -10 13 0 5 -18 26 -41 46 l-40 37 -1276
0 c-701 1 -1276 -1 -1279 -3z"/>
</g>
</svg>
